# xmcd CD database file
#
# Track frame offsets:
#	150
#	14052
#	38445
#	56080
#
# Disc length: 1117 seconds
#
# Revision: 0
# Processed by: cddbd v1.5.1PL0 Copyright (c) Steve Scherf et al.
# Submitted via: CDex 1.51
#
DISCID=2c045b04
DTITLE=monsoon - not another something
DYEAR=2000
DGENRE=Rock
TTITLE0=not another something
TTITLE1=isn't it
TTITLE2=front of me
TTITLE3=r.
EXTD=YEAR: 2000
EXTT0=
EXTT1=
EXTT2=
EXTT3=
PLAYORDER=
